<mxfile host="app.diagrams.net" modified="2023-12-12T11:31:36.331Z" agent="Mozilla/5.0 (Macintosh; Intel Mac OS X 10_15_7) AppleWebKit/537.36 (KHTML, like Gecko) Chrome/120.0.0.0 Safari/537.36" version="22.1.7" etag="W1pxx5f9-BBjvUpDfuo-" type="github">
  <diagram name="Pagina-1" id="ia6gijglXB2cqZXW0-dt">
    <mxGraphModel>
      <root>
        <mxCell id="0" />
        <mxCell id="1" parent="0" />
      </root>
    </mxGraphModel>
  </diagram>
</mxfile>
